<?xml version="1.0" encoding="UTF-8" standalone="no"?>
<!DOCTYPE svg PUBLIC "-//W3C//DTD SVG 1.1//EN" "http://www.w3.org/Graphics/SVG/1.1/DTD/svg11.dtd">
<svg width="100%" height="100%" viewBox="0 0 800 800" version="1.1" xmlns="http://www.w3.org/2000/svg" xmlns:xlink="http://www.w3.org/1999/xlink" xml:space="preserve" xmlns:serif="http://www.serif.com/" style="fill-rule:evenodd;clip-rule:evenodd;stroke-linejoin:round;stroke-miterlimit:2;">
    <g id="Layer-1" serif:id="Layer 1" transform="matrix(0.667191,0,0,0.667191,223.373,148.093)">
        <g transform="matrix(1,0,0,1,0,755.128)">
            <path d="M0,-755.129L0,-127.438L264.629,0L529.465,-123.591L529.465,-755.129L0,-755.129Z" style="fill:white;fill-rule:nonzero;"/>
        </g>
        <g transform="matrix(1,0,0,1,27.7992,241.743)">
            <path d="M0,368.479L0,-114.141L473.867,-114.141L473.867,372.089L237.017,482.62L0,368.479Z" style="fill:white;fill-rule:nonzero;"/>
        </g>
        <g transform="matrix(1,0,0,1,515.566,739.745)">
            <path d="M0,-725.845L-501.666,-725.845L-501.666,-120.789L-250.843,0L0,-117.06L0,-725.845ZM-27.8,-598.242L-27.8,-134.765L-250.656,-30.765L-473.867,-138.257L-473.867,-598.242L-27.8,-598.242Z" style="fill:rgb(58,58,206);fill-rule:nonzero;"/>
        </g>
        <g transform="matrix(1,0,0,1,384.891,481.068)">
            <path d="M0,-121.848L-1.608,94.795L-36.111,110.916L-36.111,-105.037L0,-121.848ZM68.395,-269.197L68.395,-304.73L-105.782,-304.73L-105.782,-149.454L-133.822,-136.4L-133.822,-304.73L-308,-304.73L-308.356,-97.535L-238.679,-129.956L-238.679,-269.197L-203.493,-269.197L-203.493,-103.967L-308.356,-55.15L-308,101.368L-308,101.862L-133.822,182.882L-133.822,79.665L-203.493,47.257L-203.493,110.916L-238.329,94.64L-238.329,-10.899L-105.782,-72.603L-105.782,182.688L68.395,101.307L68.395,-230.538L-36.111,-181.888L-36.111,-269.197L-1.276,-269.197L-1.276,-236.764L68.395,-269.197Z" style="fill:rgb(58,58,206);fill-rule:nonzero;"/>
        </g>
        <g transform="matrix(1,0,0,1,45.3518,48.7352)">
            <path d="M0,57.932L0,46.613L38.057,18.271L38.057,11.943L14.884,11.943L14.884,18.716L0,18.716L0,12.032C0,3.743 3.208,0 11.319,0L39.038,0C50.356,0 52.852,3.832 52.852,12.477L52.852,17.023C52.852,22.014 51.961,23.886 47.059,27.362L20.856,45.989L52.941,45.989L52.941,57.932L0,57.932Z" style="fill:white;fill-rule:nonzero;"/>
        </g>
        <g transform="matrix(1,0,0,1,0,-599.726)">
            <path d="M181.802,681.616L156.223,681.616L156.223,693.738L181.802,693.738L181.802,681.616ZM141.606,694.272L141.606,660.582C141.606,651.491 145.795,648.461 152.746,648.461L192.497,648.461L192.497,661.206L156.222,661.206L156.222,670.564L187.506,670.564C193.923,670.564 196.508,674.397 196.508,681.171L196.508,694.807C196.508,700.778 193.299,706.393 184.475,706.393L154.173,706.393C145.616,706.393 141.606,701.58 141.606,694.272" style="fill:white;fill-rule:nonzero;"/>
        </g>
        <g transform="matrix(1,0,0,1,240.177,106.667)">
            <path d="M0,-57.932L49.109,-57.932L49.109,-45.9L14.973,-45.9L14.973,-35.294L39.839,-35.294L39.839,-23.44L14.973,-23.44L14.973,-12.032L49.109,-12.032L49.109,0L0,0L0,-57.932Z" style="fill:white;fill-rule:nonzero;"/>
        </g>
        <g transform="matrix(1,0,0,1,0,-599.726)">
            <path d="M371.548,661.384L346.949,661.384L346.949,677.783L371.548,677.783L371.548,661.384ZM331.975,706.393L331.975,648.461L377.341,648.461C383.758,648.461 386.343,652.472 386.343,659.067L386.343,680.012C386.343,685.894 384.203,689.013 379.034,689.637L385.63,706.393L370.656,706.393L364.328,689.727L346.948,689.727L346.948,706.393L331.975,706.393Z" style="fill:white;fill-rule:nonzero;"/>
        </g>
        <g transform="matrix(1,0,0,1,484.113,59.9652)">
            <path d="M0,35.472C0,42.424 -4.278,46.702 -11.854,46.702L-43.405,46.702C-49.465,46.702 -54.902,43.582 -54.902,36.007L-54.902,26.203L-40.107,26.203L-40.107,34.67L-14.795,34.67L-14.795,26.827L-48.128,18.538C-53.298,17.201 -54.902,14.438 -54.902,8.734L-54.902,-1.961C-54.902,-8.556 -50.98,-11.23 -44.563,-11.23L-10.874,-11.23C-1.961,-11.23 0,-6.596 0,0.891L0,8.2L-14.795,8.2L-14.795,0.802L-40.107,0.802L-40.107,7.754L-6.685,16.042C-1.248,17.379 0,19.875 0,26.559L0,35.472Z" style="fill:white;fill-rule:nonzero;"/>
        </g>
    </g>
</svg>
