<?xml version="1.0" encoding="UTF-8" standalone="no"?>
<!DOCTYPE svg PUBLIC "-//W3C//DTD SVG 1.1//EN" "http://www.w3.org/Graphics/SVG/1.1/DTD/svg11.dtd">
<svg width="100%" height="100%" viewBox="0 0 800 800" version="1.1" xmlns="http://www.w3.org/2000/svg" xmlns:xlink="http://www.w3.org/1999/xlink" xml:space="preserve" xmlns:serif="http://www.serif.com/" style="fill-rule:evenodd;clip-rule:evenodd;stroke-linejoin:round;stroke-miterlimit:2;">
    <g id="Layer-1" serif:id="Layer 1" transform="matrix(0.368383,0,0,0.368383,185.995,185.995)">
        <g transform="matrix(0,-1,-1,0,580.929,14.0019)">
            <path d="M-566.929,-566.929C-880.035,-566.929 -1133.86,-313.106 -1133.86,0C-1133.86,313.107 -880.035,566.929 -566.929,566.929C-253.823,566.929 0,313.107 0,0C0,-313.106 -253.823,-566.929 -566.929,-566.929" style="fill-rule:nonzero;"/>
        </g>
        <g transform="matrix(1,0,0,1,580.929,1161.86)">
            <path d="M0,-1161.86C-78.419,-1161.86 -154.499,-1146.5 -226.128,-1116.2C-260.554,-1101.64 -293.756,-1083.62 -324.813,-1062.64C-355.571,-1041.86 -384.494,-1017.99 -410.779,-991.708C-437.064,-965.423 -460.927,-936.5 -481.707,-905.742C-502.689,-874.685 -520.71,-841.483 -535.271,-807.057C-565.567,-735.428 -580.929,-659.348 -580.929,-580.929C-580.929,-502.51 -565.567,-426.43 -535.271,-354.801C-520.71,-320.375 -502.689,-287.173 -481.707,-256.116C-460.927,-225.358 -437.064,-196.435 -410.779,-170.15C-384.494,-143.865 -355.571,-120.002 -324.813,-99.222C-293.756,-78.24 -260.554,-60.219 -226.128,-45.658C-154.499,-15.361 -78.419,0 0,0C78.419,0 154.499,-15.361 226.128,-45.658C260.554,-60.219 293.756,-78.24 324.813,-99.222C355.571,-120.002 384.494,-143.865 410.779,-170.15C437.064,-196.435 460.927,-225.358 481.707,-256.116C502.689,-287.173 520.71,-320.375 535.271,-354.801C565.568,-426.43 580.929,-502.51 580.929,-580.929C580.929,-659.348 565.568,-735.428 535.271,-807.057C520.71,-841.483 502.689,-874.685 481.707,-905.742C460.927,-936.5 437.064,-965.423 410.779,-991.708C384.494,-1017.99 355.571,-1041.86 324.813,-1062.64C293.756,-1083.62 260.554,-1101.64 226.128,-1116.2C154.499,-1146.5 78.419,-1161.86 0,-1161.86M0,-1147.86C313.106,-1147.86 566.929,-894.035 566.929,-580.929C566.929,-267.823 313.106,-14 0,-14C-313.106,-14 -566.929,-267.823 -566.929,-580.929C-566.929,-894.035 -313.106,-1147.86 0,-1147.86" style="fill:rgb(242,48,17);fill-rule:nonzero;"/>
        </g>
        <g transform="matrix(0,-1,-1,0,580.929,167.935)">
            <path d="M-411.023,-411.023C-638.026,-411.023 -822.047,-227.001 -822.047,0.001C-822.047,227.003 -638.026,411.023 -411.023,411.023C-184.021,411.023 0.001,227.003 0.001,0.001C0.001,-227.001 -184.021,-411.023 -411.023,-411.023" style="fill-rule:nonzero;"/>
        </g>
        <g transform="matrix(1,0,0,1,580.929,1003.98)">
            <path d="M0,-850.047C-57.372,-850.047 -113.035,-838.807 -165.443,-816.641C-216.056,-795.233 -261.508,-764.589 -300.537,-725.56C-339.566,-686.531 -370.21,-641.079 -391.617,-590.466C-413.784,-538.058 -425.024,-482.395 -425.024,-425.023C-425.024,-367.652 -413.784,-311.989 -391.617,-259.581C-370.21,-208.968 -339.566,-163.515 -300.537,-124.486C-261.508,-85.457 -216.056,-54.814 -165.443,-33.406C-113.035,-11.239 -57.372,0 0,0C57.372,0 113.035,-11.239 165.443,-33.406C216.056,-54.814 261.508,-85.457 300.537,-124.486C339.566,-163.515 370.21,-208.968 391.617,-259.581C413.784,-311.989 425.024,-367.652 425.024,-425.023C425.024,-482.395 413.784,-538.058 391.617,-590.466C370.21,-641.079 339.566,-686.531 300.537,-725.56C261.508,-764.589 216.056,-795.233 165.443,-816.641C113.035,-838.807 57.372,-850.047 0,-850.047M0,-836.047C227.002,-836.047 411.024,-652.025 411.024,-425.023C411.024,-198.021 227.002,-14 0,-14C-227.002,-14 -411.024,-198.021 -411.024,-425.023C-411.024,-652.025 -227.002,-836.047 0,-836.047" style="fill:rgb(242,48,17);fill-rule:nonzero;"/>
        </g>
        <g transform="matrix(1,0,0,1,1013.72,835.493)">
            <path d="M0,51.085L-8.495,48.082L-7.992,57.078C-7.146,56.599 0.46,51.706 0,51.085M-39.994,48.082L-47.989,51.085C-48.203,52.002 -47.681,52.055 -47.161,52.499C-45.321,54.073 -42.635,55.445 -40.738,57.075C-39.654,54.201 -40.042,51.094 -39.994,48.082M-30.003,37.585L-31.027,37.888L-36.765,48.035L-30.161,59.495L-17.575,59.495L-11.589,48.418L-17.504,37.582L-24.244,47.585L-30.003,37.585ZM5.381,42.464L9.287,30.613L0.654,21.166L-11.495,23.587L-4.001,32.835L-15.495,35.587C-13.792,37.139 -9.037,44.122 -7.483,44.828C-5.468,45.744 2.66,42.674 5.381,42.464M-36.995,23.589L-49.129,21.158C-49.713,21.315 -56.975,29.365 -57.235,30.114C-58.074,32.528 -54.169,39.505 -53.879,42.471L-41.354,45.006L-32.994,35.588L-44.491,33.077L-36.995,23.589ZM-33.403,22.68L-30.014,34.353C-28.085,34.52 -19.088,35.112 -18.238,34.09L-14.706,23.614C-14.508,23.069 -14.926,22.903 -15.221,22.591C-17.199,20.502 -21.985,18.324 -24.249,16.18L-33.403,22.68ZM-49.988,18.582C-49.363,17.929 -53.713,12.948 -54.48,12.327C-54.984,11.92 -55.141,11.379 -55.983,11.588L-58.483,20.584L-49.988,18.582ZM7.497,11.088C6.517,10.834 6.531,11.493 6.091,11.927C4.301,13.696 2.804,16.239 1.002,18.079L9.997,20.082L7.497,11.088ZM-1.13,15.953L0.48,4.263C0.662,3.435 0.251,3.11 -0.238,2.574C-0.853,1.899 -9.251,-4.221 -9.835,-4.306L-21.426,0.658L-22.49,13.585L-11.499,9.09L-12.492,21.084L-1.13,15.953ZM-27.092,0.686L-38.335,-4.333L-48.907,3.381L-47.409,16L-35.995,20.583L-36.487,9.087L-25.496,13.582L-27.092,0.686ZM-19.495,-8.41L-28.994,-8.41L-24.244,-0.422L-19.495,-8.41Z" style="fill:rgb(242,48,17);fill-rule:nonzero;"/>
        </g>
        <g transform="matrix(1,0,0,1,196.621,835.493)">
            <path d="M0,51.085L-8.495,48.082L-7.992,57.078C-7.146,56.599 0.46,51.706 0,51.085M-39.994,48.082L-47.989,51.085C-48.203,52.002 -47.681,52.055 -47.161,52.499C-45.321,54.073 -42.635,55.445 -40.738,57.075C-39.653,54.201 -40.042,51.094 -39.994,48.082M-30.003,37.585L-31.027,37.888L-36.765,48.035L-30.161,59.495L-17.575,59.495L-11.589,48.418L-17.504,37.582L-24.244,47.585L-30.003,37.585ZM5.381,42.464L9.287,30.613L0.654,21.166L-11.495,23.587L-4.001,32.835L-15.495,35.587C-13.792,37.139 -9.037,44.122 -7.483,44.828C-5.468,45.744 2.66,42.674 5.381,42.464M-36.995,23.589L-49.129,21.158C-49.713,21.315 -56.975,29.365 -57.235,30.114C-58.074,32.528 -54.169,39.505 -53.879,42.471L-41.354,45.006L-32.994,35.588L-44.491,33.077L-36.995,23.589ZM-33.403,22.68L-30.014,34.353C-28.085,34.52 -19.088,35.112 -18.238,34.09L-14.706,23.614C-14.508,23.069 -14.926,22.903 -15.221,22.591C-17.199,20.502 -21.985,18.324 -24.249,16.18L-33.403,22.68ZM-49.988,18.582C-49.363,17.929 -53.713,12.948 -54.48,12.327C-54.984,11.92 -55.141,11.379 -55.983,11.588L-58.483,20.584L-49.988,18.582ZM7.497,11.088C6.517,10.834 6.531,11.493 6.091,11.927C4.301,13.696 2.804,16.239 1.002,18.079L9.997,20.082L7.497,11.088ZM-1.13,15.953L0.48,4.263C0.662,3.435 0.251,3.11 -0.238,2.574C-0.853,1.899 -9.251,-4.221 -9.835,-4.306L-21.426,0.658L-22.49,13.585L-11.499,9.09L-12.492,21.084L-1.13,15.953ZM-27.092,0.686L-38.335,-4.333L-48.907,3.381L-47.409,16L-35.995,20.583L-36.487,9.087L-25.496,13.582L-27.092,0.686ZM-19.495,-8.41L-28.994,-8.41L-24.244,-0.422L-19.495,-8.41Z" style="fill:rgb(242,48,17);fill-rule:nonzero;"/>
        </g>
        <g transform="matrix(0.745424,-0.666591,-0.666591,-0.745424,831.943,803.022)">
            <path d="M-68.82,63.55L62.09,63.55L166.403,180.2L35.82,180.566L-68.82,63.55Z" style="fill:rgb(242,48,17);fill-rule:nonzero;"/>
        </g>
        <g transform="matrix(1,0,0,1,672.642,905.016)">
            <path d="M0,-101.19L-21.562,-81.908L-12.772,-74.047L-52.452,-38.564L-84.869,-67.552L-106.432,-48.27L-52.452,0L8.791,-54.765L30.353,-74.047L8.791,-93.329L0,-101.19Z" style="fill:rgb(242,48,17);fill-rule:nonzero;"/>
        </g>
        <g transform="matrix(1,0,0,1,573.365,872.848)">
            <path d="M0,-48.269L-21.562,-67.551L-57.533,-35.385L-71.941,-48.269L-21.561,-93.321L-43.123,-112.603L-115.067,-48.269L-109.643,-43.419L-79.096,-16.103L-57.533,3.179L10.854,64.334L32.417,45.052L-35.971,-16.103L0,-48.269Z" style="fill:rgb(242,48,17);fill-rule:nonzero;"/>
        </g>
        <g transform="matrix(1,0,0,1,613.045,773.13)">
            <path d="M0,15.965L8.79,23.826L30.353,4.543L21.562,-3.317L0,-22.599L-21.562,-3.317L-46.834,19.282L-25.272,38.564L0,15.965Z" style="fill:rgb(242,48,17);fill-rule:nonzero;"/>
        </g>
        <g transform="matrix(0.764267,0.6449,0.6449,-0.764267,309.395,677.446)">
            <path d="M39.602,-21.194L167.284,-21.194L4.879,171.271L-69.701,108.34L39.602,-21.194Z" style="fill:rgb(242,48,17);fill-rule:nonzero;"/>
        </g>
        <g transform="matrix(1,0,0,1,325.711,725.607)">
            <path d="M0,-348.573L0,-261.31L371.641,-261.31L206.426,-112.725L206.426,-43.508L255.218,0L304.009,-43.508L304.009,-69.093L510.436,-253.284L510.436,-348.573L0,-348.573Z" style="fill:rgb(242,48,17);fill-rule:nonzero;"/>
        </g>
        <g transform="matrix(1,0,0,1,637.622,292.041)">
            <path d="M0,-25.901L-52.48,-18.785L-42.858,-26.742L-56.693,-67.361L-70.528,-26.742L-60.906,-18.785L-113.386,-25.901L-79.097,-0.562L-92.652,41.46L-56.796,16.329L-56.693,16.403L-56.59,16.329L-20.734,41.46L-34.289,-0.562L0,-25.901Z" style="fill:rgb(242,48,17);fill-rule:nonzero;"/>
        </g>
        <g transform="matrix(1,0,0,1,717.644,307.711)">
            <path d="M0,-16.11L-32.643,-11.684L-26.659,-16.633L-35.264,-41.899L-43.87,-16.633L-37.885,-11.684L-70.528,-16.11L-49.2,-0.349L-57.631,25.789L-35.328,10.158L-35.264,10.204L-35.2,10.158L-12.897,25.789L-21.328,-0.349L0,-16.11Z" style="fill:rgb(242,48,17);fill-rule:nonzero;"/>
        </g>
        <g transform="matrix(1,0,0,1,514.742,307.711)">
            <path d="M0,-16.11L-32.643,-11.684L-26.659,-16.633L-35.264,-41.899L-43.87,-16.633L-37.885,-11.684L-70.528,-16.11L-49.2,-0.349L-57.631,25.789L-35.328,10.158L-35.264,10.204L-35.2,10.158L-12.897,25.789L-21.328,-0.349L0,-16.11Z" style="fill:rgb(242,48,17);fill-rule:nonzero;"/>
        </g>
        <g transform="matrix(1,0,0,1,115.472,629.05)">
            <path d="M0,-89.644L0.173,-74.704L-39.665,-74.243L0.452,-50.553L0.578,-39.764L-38.981,-15.151L0.857,-15.613L1.03,-0.673L-57.066,0L-57.301,-20.168L-16.582,-44.961L-57.864,-68.803L-58.097,-88.971L0,-89.644Z" style="fill:white;fill-rule:nonzero;"/>
        </g>
        <g transform="matrix(1,0,0,1,78.1939,494.219)">
            <path d="M0,-62.906L12.21,-60.08C18.195,-34.414 34.391,-20.099 48.946,-16.729L45.576,-2.176C31.021,-5.545 14.095,-16.704 7.548,-39.945L-1.699,0L-13.909,-2.826L0,-62.906Z" style="fill:white;fill-rule:nonzero;"/>
        </g>
        <g transform="matrix(1,0,0,1,146.314,302.594)">
            <path d="M0,8.191L12.342,16.311L35.15,-18.357L45.689,-11.424L22.881,23.244L38.066,33.235L29.855,45.715L-18.681,13.784L15.075,-37.524L25.545,-30.637L0,8.191Z" style="fill:white;fill-rule:nonzero;"/>
        </g>
        <g transform="matrix(1,0,0,1,251.45,240.344)">
            <path d="M0,-30.246C-8.227,-38.686 -16.331,-38.438 -27.505,-27.546C-38.679,-16.653 -39.193,-8.619 -30.908,-0.119C-22.565,8.44 -14.402,8.135 -3.287,-2.7C7.827,-13.535 8.285,-21.747 0,-30.246M-41.606,10.31C-55.048,-3.48 -54.56,-18.676 -36.253,-36.52C-18.006,-54.307 -2.685,-54.405 10.699,-40.675C24.14,-26.885 23.709,-11.512 5.461,6.275C-12.846,24.12 -28.107,24.159 -41.606,10.31" style="fill:white;fill-rule:nonzero;"/>
        </g>
        <g transform="matrix(1,0,0,1,344.84,166.867)">
            <path d="M0,-22.389C-6.064,-32.495 -14.007,-34.119 -27.388,-26.092C-40.768,-18.063 -43.118,-10.363 -37.011,-0.185C-30.862,10.065 -22.848,11.645 -9.539,3.66C3.771,-4.326 6.106,-12.212 0,-22.389M-49.822,7.502C-59.729,-9.011 -55.758,-23.686 -33.836,-36.839C-11.985,-49.948 2.947,-46.517 12.811,-30.075C22.717,-13.563 18.76,1.297 -3.091,14.406C-25.012,27.559 -39.874,24.086 -49.822,7.502" style="fill:white;fill-rule:nonzero;"/>
        </g>
        <g transform="matrix(1,0,0,1,454.437,128.144)">
            <path d="M0,-44.919L-26.793,-36.057L-12.485,7.208L-26.669,11.899L-40.978,-31.365L-67.773,-22.503L-71.708,-34.403L-3.934,-56.818L0,-44.919Z" style="fill:white;fill-rule:nonzero;"/>
        </g>
        <g transform="matrix(1,0,0,1,558.366,78.4066)">
            <path d="M0,18.073C-0.563,11.957 -4.2,12.292 -8.167,12.658L-42.55,15.822L-41.425,28.055L-7.041,24.889C-3.074,24.524 0.563,24.19 0,18.073M-43.6,4.417L-12.936,1.594L-12.854,1.586C-8.886,1.22 -5.249,0.886 -5.805,-5.148C-6.353,-11.099 -9.99,-10.763 -14.039,-10.391L-44.703,-7.568L-43.6,4.417ZM14.946,17.448C15.844,27.2 10.795,34.834 -2.347,36.043L-55.245,40.913L-60.57,-16.943L-9.656,-21.63C3.486,-22.84 8.151,-16.518 8.935,-8.005C9.309,-3.954 8.02,0.164 5.424,3.653C10.665,6.256 14.33,10.753 14.946,17.448" style="fill:white;fill-rule:nonzero;"/>
        </g>
        <g transform="matrix(1,0,0,1,658.758,86.5541)">
            <path d="M0,10.151L-8.474,-14.804L-23.436,6.936L0,10.151ZM3.998,21.927L-30.457,17.2L-38.304,28.607L-54.587,26.373L-17.006,-27.118L2.977,-24.376L24.849,37.269L8.485,35.024L3.998,21.927Z" style="fill:white;fill-rule:nonzero;"/>
        </g>
        <g transform="matrix(1,0,0,1,776.446,90.6261)">
            <path d="M0,51.937L-4.407,63.668L-60.345,42.655L-39.915,-11.731L-25.93,-6.477L-41.954,36.177L0,51.937Z" style="fill:white;fill-rule:nonzero;"/>
        </g>
        <g transform="matrix(1,0,0,1,861.7,131.988)">
            <path d="M0,59.839L-6.692,70.436L-57.221,38.53L-26.2,-10.597L-13.568,-2.62L-37.897,35.909L0,59.839Z" style="fill:white;fill-rule:nonzero;"/>
        </g>
        <g transform="matrix(1,0,0,1,1001.6,302.26)">
            <path d="M0,-35.135C13.775,-16.523 13.616,-1.951 1.029,9.224L-8.006,-2.984C-1.307,-9.698 -2.668,-17.674 -10.074,-27.68C-19.109,-39.888 -27.247,-41.816 -36.786,-34.755C-46.392,-27.644 -46.944,-19.183 -37.957,-7.041C-30.602,2.898 -23.254,6.547 -14.81,2.051L-5.774,14.259C-20.205,23.082 -34.256,19.025 -48.031,0.414C-63.237,-20.132 -61.216,-35.258 -45.673,-46.763C-30.197,-58.217 -15.207,-55.682 0,-35.135" style="fill:white;fill-rule:nonzero;"/>
        </g>
        <g transform="matrix(1,0,0,1,1028.92,343.995)">
            <path d="M0,68.032L-11.447,73.134L-35.776,18.551L17.292,-5.102L23.374,8.544L-18.247,27.094L0,68.032Z" style="fill:white;fill-rule:nonzero;"/>
        </g>
        <g transform="matrix(1,0,0,1,1034.99,470.53)">
            <path d="M0,14.027C-5.219,-10.999 2.053,-23.706 21.878,-27.839L50.234,-33.751L53.284,-19.126L24.927,-13.214C16.965,-11.554 8.321,-7.463 12.268,11.468C16.216,30.401 25.854,30.68 33.736,29.036L62.092,23.124L65.141,37.75L36.785,43.662C17.041,47.778 5.2,38.971 0,14.027" style="fill:white;fill-rule:nonzero;"/>
        </g>
        <g transform="matrix(1,0,0,1,1081.26,613.157)">
            <path d="M0,-40.867L-0.843,-10.084L-0.845,-10C-0.954,-6.018 -1.054,-2.367 5.003,-2.201C10.976,-2.037 11.077,-5.688 11.189,-9.755L12.031,-40.537L0,-40.867ZM-18.745,0.801C-12.605,0.97 -12.505,-2.681 -12.395,-6.664L-11.45,-41.181L-23.73,-41.517L-24.676,-7C-24.785,-3.018 -24.885,0.634 -18.745,0.801M-19.901,15.716C-29.693,15.448 -36.671,9.527 -36.309,-3.665L-34.854,-56.768L23.227,-55.177L21.827,-4.065C21.465,9.128 14.633,13.01 6.087,12.774C2.021,12.664 -1.916,10.895 -5.073,7.902C-8.278,12.796 -13.181,15.901 -19.901,15.716" style="fill:white;fill-rule:nonzero;"/>
        </g>
        <g transform="matrix(1,0,0,1,410.939,1040.01)">
            <path d="M0,20.314L41.912,34.211L37.968,46.108L-23.799,25.627L-21.421,18.458C-13.819,-4.468 32.855,16.692 37.009,4.167C38.523,-0.403 36.262,-3.339 24.051,-7.389C11.84,-11.437 5.645,-11.48 2.746,-2.736L-11.436,-7.438C-5.349,-25.794 8.931,-25.606 27.207,-19.546C46.194,-13.25 56.102,-5.942 51.555,7.765C44.477,29.115 7.098,10.513 0,20.314" style="fill:white;fill-rule:nonzero;"/>
        </g>
        <g transform="matrix(1,0,0,1,550.464,1068.99)">
            <path d="M0,3.911C1.149,-6.818 -4.104,-13.892 -17.144,-15.289C-30.184,-16.686 -36.807,-10.967 -37.965,-0.156C-39.132,10.739 -33.878,17.813 -20.839,19.209C-7.799,20.606 -1.158,14.723 0,3.911M-52.82,-1.746C-50.77,-20.894 -38.753,-30.209 -15.81,-27.752C7.052,-25.303 16.897,-13.563 14.854,5.502C12.804,24.649 0.687,34.12 -22.174,31.672C-45.117,29.214 -54.88,17.483 -52.82,-1.746" style="fill:white;fill-rule:nonzero;"/>
        </g>
        <g transform="matrix(1,0,0,1,627.121,1053.67)">
            <path d="M0,34.988L43.9,30.279L45.236,42.739L-19.459,49.678L-20.264,42.17C-22.839,18.156 28.402,18.086 26.996,4.965C26.483,0.179 23.209,-1.557 10.418,-0.185C-2.373,1.187 -8.028,3.713 -7.046,12.872L-21.899,14.466C-23.961,-4.761 -10.889,-10.503 8.256,-12.557C28.143,-14.69 40.186,-12.141 41.726,2.216C44.124,24.579 2.4,23.128 0,34.988" style="fill:white;fill-rule:nonzero;"/>
        </g>
        <g transform="matrix(1,0,0,1,773.619,1048.79)">
            <path d="M0,-1.313C4.527,12.4 -5.236,22.005 -23.679,28.094C-41.963,34.13 -57.346,35.188 -62.732,18.875L-48.546,14.191C-46.49,20.416 -39.351,20.069 -27.214,16.062C-15.471,12.186 -12.858,7.391 -14.707,1.794C-16.424,-3.407 -20.457,-6.096 -31.256,-2.531C-36.693,-0.735 -41.768,2.163 -49.975,9.069L-62.395,10.634L-64.771,-20.394L-15.988,-36.501L-12.267,-25.231L-50.49,-12.612L-50.16,0.302C-43.188,-5.846 -37.797,-9.374 -28.812,-12.339C-14.547,-17.048 -3.902,-13.134 0,-1.313" style="fill:white;fill-rule:nonzero;"/>
        </g>
    </g>
</svg>
