<?xml version="1.0" encoding="UTF-8" standalone="no"?>
<!DOCTYPE svg PUBLIC "-//W3C//DTD SVG 1.1//EN" "http://www.w3.org/Graphics/SVG/1.1/DTD/svg11.dtd">
<svg width="100%" height="100%" viewBox="0 0 800 800" version="1.1" xmlns="http://www.w3.org/2000/svg" xmlns:xlink="http://www.w3.org/1999/xlink" xml:space="preserve" xmlns:serif="http://www.serif.com/" style="fill-rule:evenodd;clip-rule:evenodd;stroke-linejoin:round;stroke-miterlimit:2;">
    <g id="Layer-1" serif:id="Layer 1" transform="matrix(0.716707,0,0,0.716707,185.995,60.0634)">
        <g transform="matrix(1,0,0,1,581.794,584.597)">
            <path d="M0,-224.081C-15.251,-260.138 -37.083,-292.52 -64.89,-320.326C-85.857,-341.294 -109.428,-358.859 -135.212,-372.772L-135.212,-400.084C-135.212,-411.455 -199.603,-420.659 -279.033,-420.659C-358.464,-420.659 -422.855,-411.455 -422.855,-400.084L-422.855,-372.735C-448.612,-358.828 -472.159,-341.275 -493.107,-320.326C-520.913,-292.52 -542.745,-260.138 -557.996,-224.081C-573.787,-186.747 -581.794,-147.092 -581.794,-106.218C-581.794,-65.343 -573.787,-25.688 -557.996,11.646C-542.745,47.703 -520.913,80.085 -493.107,107.891C-465.301,135.698 -432.919,157.53 -396.862,172.781C-359.528,188.571 -319.873,196.578 -278.998,196.578C-238.124,196.578 -198.469,188.571 -161.135,172.781C-125.077,157.53 -92.696,135.698 -64.89,107.891C-37.083,80.085 -15.251,47.703 0,11.646C15.791,-25.688 23.798,-65.343 23.798,-106.218C23.798,-147.092 15.791,-186.747 0,-224.081" style="fill:white;fill-rule:nonzero;"/>
        </g>
        <g transform="matrix(1,0,0,1,302.79,39.0811)">
            <path d="M0,94.01L-20.934,77.255L0,47.95L20.934,77.255L0,94.01ZM126.228,86.318C120.358,66.094 114.489,45.859 108.62,25.635C91.253,43.329 73.871,61.036 56.49,78.741C39.317,53.497 22.131,28.263 4.945,3.021L20.934,-9.777L0,-39.081L-20.934,-9.777L-4.946,3.02C-22.13,28.262 -39.305,53.497 -56.491,78.741C-73.873,61.036 -91.24,43.329 -108.622,25.635C-114.491,45.859 -120.36,66.094 -126.229,86.318C-153.162,72.158 -180.095,57.986 -207.014,43.826C-185.964,73.581 -164.9,103.336 -143.851,133.091L-143.836,133.091C-143.851,133.034 -143.851,132.966 -143.851,132.91C-143.851,121.55 -79.459,112.335 -0.029,112.335C79.401,112.335 143.793,121.55 143.793,132.91C143.793,132.966 143.793,133.034 143.779,133.091L143.849,133.091C164.899,103.336 185.963,73.581 207.026,43.826C180.094,57.986 153.161,72.158 126.228,86.318" style="fill:white;fill-rule:nonzero;"/>
        </g>
        <g transform="matrix(1,0,0,1,302.796,190.042)">
            <path d="M0,576.675C-77.018,576.675 -149.426,546.683 -203.885,492.223C-258.345,437.763 -288.338,365.355 -288.338,288.337C-288.338,211.32 -258.345,138.912 -203.885,84.452C-149.426,29.993 -77.018,0 0,0C77.017,0 149.426,29.993 203.885,84.452C258.345,138.912 288.338,211.32 288.338,288.337C288.338,365.355 258.345,437.763 203.885,492.223C149.426,546.683 77.017,576.675 0,576.675" style="fill:rgb(79,7,81);fill-rule:nonzero;"/>
        </g>
        <g transform="matrix(1,0,0,1,500.548,280.635)">
            <path d="M0,395.495C-25.69,421.185 -55.599,441.357 -88.896,455.441C-123.365,470.018 -159.99,477.404 -197.752,477.404C-235.514,477.404 -272.139,470.018 -306.599,455.441C-339.905,441.357 -369.814,421.185 -395.504,395.495C-421.194,369.805 -441.357,339.895 -455.442,306.599C-470.019,272.13 -477.413,235.505 -477.413,197.743C-477.413,159.98 -470.019,123.364 -455.442,88.896C-441.357,55.59 -421.194,25.681 -395.504,-0.009C-369.814,-25.699 -339.905,-45.862 -306.599,-59.947C-272.139,-74.524 -235.514,-81.918 -197.752,-81.918C-159.99,-81.918 -123.365,-74.524 -88.896,-59.947C-55.599,-45.862 -25.69,-25.699 0,-0.009C25.69,25.681 45.853,55.59 59.938,88.896C74.515,123.364 81.909,159.98 81.909,197.743C81.909,235.505 74.515,272.13 59.938,306.599C45.853,339.895 25.69,369.805 0,395.495M-197.752,-93.481C-358.336,-93.481 -488.976,37.159 -488.976,197.743C-488.976,358.327 -358.336,488.976 -197.752,488.976C-37.168,488.976 93.481,358.327 93.481,197.743C93.481,37.159 -37.168,-93.481 -197.752,-93.481" style="fill:rgb(235,123,255);fill-rule:nonzero;"/>
        </g>
        <g transform="matrix(1,0,0,1,472.725,653.333)">
            <path d="M0,-345.952C-2.11,-348.062 -4.252,-350.125 -6.425,-352.156C-16.242,-361.285 -26.698,-369.504 -37.684,-376.776L-66.429,-348.038L-94.874,-319.594C-101.607,-323.127 -108.626,-326.201 -115.873,-328.77C-132.779,-334.776 -150.981,-338.048 -169.926,-338.048C-188.87,-338.048 -207.072,-334.776 -223.978,-328.77C-231.225,-326.201 -238.243,-323.127 -244.977,-319.594L-260.689,-335.306L-273.43,-348.038L-302.167,-376.776C-313.153,-369.504 -323.609,-361.285 -333.425,-352.148C-335.599,-350.125 -337.741,-348.062 -339.851,-345.952C-385.241,-300.562 -410.24,-240.219 -410.24,-176.026C-410.24,-118.481 -390.149,-64.026 -353.287,-20.675L-353.287,-94.209C-364.494,-119.208 -370.722,-146.902 -370.722,-176.026C-370.722,-234.591 -345.526,-287.379 -305.392,-324.114L-305.392,-324.115L-293.07,-311.793L-277.959,-296.681L-249.972,-268.695L-234.837,-253.56L-169.926,-188.648L-105.022,-253.552C-113.297,-260.507 -122.544,-266.039 -132.534,-270.023C-135.442,-271.185 -138.39,-272.212 -141.378,-273.09L-169.926,-244.542L-215.228,-289.845C-207.744,-292.832 -199.904,-295.109 -191.786,-296.579C-184.697,-297.859 -177.386,-298.531 -169.926,-298.531C-162.465,-298.531 -155.162,-297.859 -148.072,-296.579C-139.955,-295.109 -132.107,-292.832 -124.623,-289.845C-111.842,-284.747 -100.122,-277.555 -89.879,-268.695C-85.034,-264.506 -80.521,-259.946 -76.395,-255.054C-75.929,-254.5 -75.47,-253.947 -75.012,-253.386C-70.902,-248.359 -67.188,-243.001 -63.908,-237.358L-169.926,-131.34L-260.215,-221.63C-264.839,-212.533 -268.024,-202.851 -269.707,-192.766C-270.6,-187.479 -271.059,-182.049 -271.082,-176.603L-169.926,-75.454L-16.692,-228.688C-21.276,-241.997 -27.544,-254.524 -35.25,-266.016C-38.854,-271.39 -42.766,-276.535 -46.978,-281.428C-47.445,-281.973 -47.919,-282.518 -48.393,-283.056C-52.621,-287.861 -57.134,-292.414 -61.9,-296.681L-34.467,-324.114C5.667,-287.379 30.863,-234.591 30.863,-176.026C30.863,-131.759 16.463,-90.779 -7.904,-57.553C-19.111,-42.267 -32.428,-28.618 -47.421,-17.039L-47.421,30.824C-33.408,22.502 -20.17,12.686 -7.904,1.463C-5.224,-0.995 -2.584,-3.517 0,-6.101C45.39,-51.491 70.381,-111.834 70.381,-176.026C70.381,-240.219 45.39,-300.562 0,-345.952" style="fill:white;fill-rule:nonzero;"/>
        </g>
        <g transform="matrix(1,0,0,1,462.269,607.485)">
            <path d="M0,-158.9L-37.265,-121.635C-41.462,-60.881 -90.171,-12.171 -150.926,-7.975C-153.747,-7.777 -156.6,-7.674 -159.469,-7.674C-162.338,-7.674 -165.191,-7.777 -168.013,-7.975C-228.767,-12.171 -277.469,-60.873 -281.673,-121.627C-281.871,-124.449 -281.974,-127.302 -281.974,-130.179C-281.974,-137.078 -281.404,-143.844 -280.298,-150.427C-277.84,-165.175 -272.735,-179.038 -265.487,-191.51C-262.207,-197.153 -258.492,-202.512 -254.382,-207.538L-282.416,-235.572C-286.629,-230.68 -290.541,-225.535 -294.145,-220.168C-301.851,-208.676 -308.126,-196.141 -312.702,-182.832C-315.366,-175.102 -317.46,-167.104 -318.938,-158.892C-320.614,-149.574 -321.491,-139.971 -321.491,-130.179L-321.491,47.311C-319.958,48.714 -318.409,50.094 -316.846,51.453C-312.156,55.53 -307.333,59.406 -302.387,63.079C-299.09,65.528 -295.738,67.886 -292.335,70.152C-288.932,72.418 -285.477,74.592 -281.974,76.672L-281.974,-24.256C-252.249,10.085 -208.353,31.844 -159.469,31.844C-70.128,31.844 2.553,-40.837 2.553,-130.179C2.553,-139.979 1.676,-149.582 0,-158.9" style="fill:white;fill-rule:nonzero;"/>
        </g>
        <g transform="matrix(1,0,0,1,303.32,229.468)">
            <path d="M0,64.477C23.971,64.477 47.832,69.235 69.883,78.332L112.918,35.305L48.488,35.305L-0.664,-13.855L-49.816,35.305L-112.91,35.305L-69.891,78.324C-47.832,69.227 -23.971,64.477 0,64.477" style="fill:rgb(235,123,255);fill-rule:nonzero;"/>
        </g>
        <g transform="matrix(-0.707107,0.707107,0.707107,0.707107,292.849,273.949)">
            <rect x="-24.024" y="-9.951" width="19.902" height="19.902" style="fill:rgb(89,14,89);"/>
        </g>
        <g transform="matrix(1,0,0,1,232.51,658.401)">
            <path d="M0,40.45C0.042,45.395 -3.301,47.758 -8.178,46.061C-13.518,44.203 -16.184,43.208 -21.545,41.126C-26.441,39.226 -29.847,34.39 -29.847,29.166L-29.847,-7.308C-26.616,-5.662 -24.988,-4.849 -21.709,-3.262C-21.635,8.119 -21.566,19.499 -21.495,30.879C-21.486,32.233 -20.785,33.245 -19.509,33.748C-15.843,35.192 -14.012,35.891 -10.345,37.229C-9.068,37.695 -8.378,37.226 -8.391,35.908C-8.496,24.842 -8.6,13.776 -8.707,2.71C-5.361,4.156 -3.677,4.854 -0.293,6.179C-0.195,17.603 -0.098,29.026 0,40.45" style="fill:rgb(235,123,255);fill-rule:nonzero;"/>
        </g>
        <g transform="matrix(1,0,0,1,274.343,708.257)">
            <path d="M0,-32.583C0.004,-19.096 0.007,-5.609 0.009,7.879C-3.767,7.435 -5.663,7.181 -9.41,6.576C-14.726,-3.837 -20.104,-14.212 -25.313,-24.68C-25.281,-15.33 -25.249,-5.981 -25.218,3.369C-28.403,2.595 -29.987,2.178 -33.146,1.293C-33.229,-12.625 -33.315,-26.543 -33.4,-40.462C-29.721,-39.196 -27.872,-38.606 -24.161,-37.538C-19.044,-27.013 -13.779,-16.587 -8.198,-6.299C-8.197,-15.471 -8.197,-24.643 -8.196,-33.815C-4.925,-33.24 -3.285,-33.01 0,-32.583" style="fill:rgb(235,123,255);fill-rule:nonzero;"/>
        </g>
        <g transform="matrix(-0.977547,0.210716,0.210716,0.977547,297.04,716.2)">
            <path d="M4.405,-41.34C1.03,-40.306 -0.667,-39.823 -4.078,-38.924C-1.252,-25.792 1.576,-12.661 4.405,0.469C7.817,-0.41 9.516,-0.881 12.896,-1.886C10.065,-15.037 7.235,-28.188 4.405,-41.34" style="fill:rgb(235,123,255);fill-rule:nonzero;"/>
        </g>
        <g transform="matrix(1,0,0,1,319.551,708.747)">
            <path d="M0,-24.142C-0.004,-13.277 -0.009,-2.411 -0.015,8.454C-3.533,8.696 -5.293,8.785 -8.815,8.902C-8.811,-1.951 -8.807,-12.804 -8.805,-23.657C-13.406,-23.493 -15.709,-23.471 -20.312,-23.543L-20.312,-31.26C-9.695,-31.089 0.934,-31.685 11.466,-33.044C11.465,-29.861 11.465,-28.322 11.464,-25.294C6.888,-24.716 4.594,-24.485 0,-24.142" style="fill:rgb(235,123,255);fill-rule:nonzero;"/>
        </g>
        <g transform="matrix(1,0,0,1,365.655,715.334)">
            <path d="M0,-47.889C0.001,-44.695 0.001,-43.109 0.002,-39.947C-7.748,-37.283 -11.667,-36.121 -19.558,-34.354C-19.556,-30.988 -19.555,-29.338 -19.553,-26.045C-13.157,-27.412 -9.978,-28.265 -3.676,-30.204C-3.675,-27.086 -3.674,-25.531 -3.673,-22.414C-9.973,-20.585 -13.151,-19.782 -19.548,-18.495C-19.546,-14.851 -19.545,-13.028 -19.543,-9.301C-11.647,-10.796 -7.734,-11.772 0.005,-14.018C0.005,-10.856 0.006,-9.271 0.006,-6.078C-9.467,-3.604 -18.616,-1.623 -28.271,0C-28.27,-13.515 -28.271,-27.031 -28.273,-40.546C-18.473,-42.477 -9.512,-44.837 0,-47.889" style="fill:rgb(235,123,255);fill-rule:nonzero;"/>
        </g>
        <g transform="matrix(1,0,0,1,392.825,667.892)">
            <path d="M0,23.982C1.258,23.481 1.941,22.469 1.942,21.116C1.948,11.765 1.951,6.877 1.957,-2.469C1.958,-3.821 1.276,-4.228 0.019,-3.641C-4.437,-1.561 -6.685,-0.551 -11.217,1.362C-11.222,10.322 -11.228,19.281 -11.234,28.24C-6.707,26.618 -4.459,25.759 0,23.982M2.077,-12.807C6.858,-15.124 10.101,-13.366 10.101,-8.143L10.101,19.427C10.101,24.655 6.839,29.475 2.05,31.364C-6.503,34.736 -10.845,36.328 -19.639,39.106C-19.635,24.99 -19.631,10.874 -19.628,-3.243C-10.814,-6.687 -6.46,-8.671 2.077,-12.807" style="fill:rgb(235,123,255);fill-rule:nonzero;"/>
        </g>
    </g>
</svg>
