<?xml version="1.0" encoding="UTF-8" standalone="no"?>
<!DOCTYPE svg PUBLIC "-//W3C//DTD SVG 1.1//EN" "http://www.w3.org/Graphics/SVG/1.1/DTD/svg11.dtd">
<svg width="100%" height="100%" viewBox="0 0 800 800" version="1.1" xmlns="http://www.w3.org/2000/svg" xmlns:xlink="http://www.w3.org/1999/xlink" xml:space="preserve" xmlns:serif="http://www.serif.com/" style="fill-rule:evenodd;clip-rule:evenodd;stroke-miterlimit:10;">
    <g id="Layer-1" serif:id="Layer 1" transform="matrix(0.650417,0,0,0.650417,162.745,162.746)">
        <g transform="matrix(1,0,0,1,364.773,44.977)">
            <path d="M0,639.589C-85.42,639.589 -165.727,606.324 -226.128,545.922C-286.529,485.521 -319.793,405.214 -319.793,319.794C-319.793,234.374 -286.529,154.067 -226.128,93.666C-165.727,33.265 -85.42,0 0,0C85.42,0 165.728,33.265 226.128,93.666C286.53,154.067 319.794,234.374 319.794,319.794C319.794,405.214 286.53,485.521 226.128,545.922C165.728,606.324 85.42,639.589 0,639.589" style="fill:rgb(44,28,59);fill-rule:nonzero;"/>
        </g>
        <g transform="matrix(1,0,0,1,364.774,684.565)">
            <path d="M0,-639.587C-41.516,-639.587 -81.997,-631.708 -120.318,-616.168C-160.014,-600.07 -195.614,-576.436 -226.128,-545.922C-256.643,-515.407 -280.277,-479.808 -296.374,-440.111C-311.914,-401.79 -319.794,-361.309 -319.794,-319.793C-319.794,-278.278 -311.914,-237.797 -296.374,-199.476C-280.277,-159.779 -256.643,-124.18 -226.128,-93.665C-195.614,-63.151 -160.014,-39.517 -120.318,-23.419C-81.997,-7.879 -41.516,0 0,0C41.516,0 81.997,-7.879 120.318,-23.419C160.014,-39.517 195.614,-63.151 226.128,-93.665C256.643,-124.18 280.277,-159.779 296.374,-199.476C311.914,-237.797 319.794,-278.278 319.794,-319.793C319.794,-361.309 311.914,-401.79 296.374,-440.111C280.277,-479.808 256.643,-515.407 226.128,-545.922C195.614,-576.436 160.014,-600.07 120.318,-616.168C81.997,-631.708 41.516,-639.587 0,-639.587M0,-598.593C71.351,-598.593 142.702,-571.373 197.141,-516.934C306.019,-408.056 306.019,-231.53 197.141,-122.652C142.702,-68.213 71.351,-40.994 0,-40.994C-71.351,-40.994 -142.702,-68.213 -197.141,-122.652C-306.019,-231.53 -306.019,-408.056 -197.141,-516.934C-142.702,-571.373 -71.351,-598.593 0,-598.593" style="fill:rgb(44,28,59);fill-rule:nonzero;"/>
        </g>
        <g transform="matrix(1,0,0,1,704.044,489.738)">
            <path d="M0,-249.932L-25.263,-218.693C-34.253,-207.576 -47.785,-201.116 -62.083,-201.116L-616.463,-201.116C-630.76,-201.116 -644.292,-207.576 -653.283,-218.693L-678.545,-249.932C-687.982,-221.433 -698.697,-178.256 -698.696,-124.966C-698.696,-94.945 -695.296,-50.588 -678.545,0L-653.282,-31.239C-644.292,-42.356 -630.76,-48.816 -616.463,-48.816L-62.082,-48.816C-47.785,-48.816 -34.253,-42.356 -25.263,-31.239L0,0C9.437,-28.5 20.151,-71.677 20.151,-124.966C20.151,-178.256 9.437,-221.433 0,-249.932" style="fill:rgb(44,28,59);"/>
        </g>
        <g transform="matrix(1,0,0,1,704.044,489.738)">
            <path d="M0,-249.932L-25.263,-218.693C-34.253,-207.576 -47.785,-201.116 -62.083,-201.116L-616.463,-201.116C-630.76,-201.116 -644.292,-207.576 -653.283,-218.693L-678.545,-249.932C-687.982,-221.433 -698.697,-178.256 -698.697,-124.966C-698.697,-94.945 -695.296,-50.589 -678.545,0L-653.282,-31.239C-644.292,-42.356 -630.76,-48.816 -616.463,-48.816L-62.082,-48.816C-47.785,-48.816 -34.253,-42.356 -25.263,-31.239L0,0C9.437,-28.5 20.151,-71.677 20.151,-124.966C20.151,-178.256 9.437,-221.433 0,-249.932M-6.883,-215.91C0.42,-186.183 4.11,-155.709 4.11,-124.966C4.11,-94.223 0.42,-63.749 -6.883,-34.022L-12.79,-41.326C-24.883,-56.28 -42.85,-64.857 -62.082,-64.857L-616.463,-64.857C-635.695,-64.857 -653.662,-56.28 -665.755,-41.326L-671.662,-34.022C-678.965,-63.749 -682.655,-94.222 -682.655,-124.966C-682.655,-155.71 -678.966,-186.183 -671.662,-215.91L-665.755,-208.605C-653.661,-193.651 -635.695,-185.075 -616.463,-185.075L-62.083,-185.075C-42.85,-185.075 -24.884,-193.652 -12.79,-208.606L-6.883,-215.91Z" style="fill:rgb(137,65,204);fill-rule:nonzero;"/>
        </g>
        <g transform="matrix(1,0,0,1,27.5894,478.648)">
            <path d="M0,-227.754C-11.214,-190.813 -16.895,-152.551 -16.895,-113.877C-16.895,-75.204 -11.214,-36.942 0,-0L19.014,-23.513C29.068,-35.944 44.003,-43.073 59.991,-43.073L614.372,-43.073C630.36,-43.073 645.296,-35.944 655.349,-23.513L674.363,-0C685.578,-36.943 691.259,-75.205 691.259,-113.877C691.259,-152.549 685.578,-190.811 674.363,-227.754L655.349,-204.242C645.296,-191.81 630.36,-184.68 614.372,-184.68L59.991,-184.68C44.003,-184.68 29.068,-191.81 19.014,-204.241L0,-227.754ZM678.453,22.063L647.034,-16.788C639.021,-26.696 627.116,-32.38 614.372,-32.38L59.991,-32.38C47.248,-32.38 35.343,-26.696 27.33,-16.788L-4.089,22.063L-7.167,12.769C-20.718,-28.155 -27.589,-70.766 -27.589,-113.877C-27.589,-156.99 -20.718,-199.6 -7.167,-240.524L-4.089,-249.817L27.33,-210.966C35.343,-201.057 47.248,-195.374 59.991,-195.374L614.372,-195.374C627.116,-195.374 639.021,-201.057 647.034,-210.966L678.453,-249.817L681.53,-240.524C695.081,-199.598 701.952,-156.987 701.952,-113.877C701.952,-70.767 695.081,-28.156 681.53,12.769L678.453,22.063Z" style="fill:rgb(44,28,59);fill-rule:nonzero;"/>
        </g>
        <g transform="matrix(1,0,0,1,239.805,704.044)">
            <path d="M0,-678.545L31.239,-653.282C42.356,-644.292 48.816,-630.76 48.816,-616.463L48.816,-62.082C48.816,-47.785 42.356,-34.253 31.239,-25.262L0,-0C28.499,9.437 71.676,20.151 124.966,20.151C154.987,20.151 199.343,16.751 249.932,-0L218.693,-25.263C207.576,-34.253 201.116,-47.785 201.116,-62.082L201.116,-616.463C201.116,-630.76 207.576,-644.292 218.693,-653.282L249.932,-678.545C221.432,-687.982 178.255,-698.696 124.966,-698.696C71.676,-698.696 28.499,-687.982 0,-678.545" style="fill:rgb(44,28,59);"/>
        </g>
        <g transform="matrix(1,0,0,1,364.771,724.196)">
            <path d="M0,-718.848C-53.289,-718.848 -96.466,-708.133 -124.966,-698.697L-93.727,-673.434C-82.61,-664.443 -76.15,-650.912 -76.15,-636.614L-76.15,-82.234C-76.15,-67.936 -82.61,-54.405 -93.727,-45.414L-124.966,-20.152C-96.467,-10.715 -53.29,0 0,0C30.021,0 74.377,-3.401 124.966,-20.152L93.727,-45.414C82.61,-54.405 76.15,-67.937 76.15,-82.234L76.15,-636.615C76.15,-650.912 82.61,-664.443 93.727,-673.434L124.966,-698.697C96.466,-708.133 53.289,-718.848 0,-718.848M0,-702.807C30.743,-702.807 61.217,-699.117 90.944,-691.814L83.64,-685.907C68.686,-673.813 60.109,-655.847 60.109,-636.615L60.109,-82.234C60.109,-63.001 68.685,-45.035 83.64,-32.941L90.944,-27.035C61.217,-19.731 30.743,-16.041 0,-16.041C-30.744,-16.041 -61.217,-19.731 -90.944,-27.034L-83.64,-32.941C-68.685,-45.036 -60.109,-63.002 -60.109,-82.234L-60.109,-636.614C-60.109,-655.847 -68.686,-673.813 -83.64,-685.907L-90.944,-691.814C-61.217,-699.117 -30.743,-702.807 0,-702.807" style="fill:rgb(137,65,204);fill-rule:nonzero;"/>
        </g>
        <g transform="matrix(1,0,0,1,250.894,27.5891)">
            <path d="M0,674.364C36.943,685.579 75.205,691.26 113.877,691.26C152.55,691.26 190.811,685.579 227.754,674.364L204.241,655.349C191.81,645.297 184.68,630.361 184.68,614.373L184.681,59.992C184.681,44.004 191.81,29.069 204.241,19.015L227.754,0.001C190.811,-11.214 152.549,-16.894 113.877,-16.894C75.205,-16.894 36.944,-11.214 0,0.001L23.513,19.015C35.944,29.069 43.074,44.005 43.074,59.992L43.074,614.373C43.074,630.36 35.944,645.296 23.513,655.349L0,674.364ZM113.877,701.953C70.767,701.953 28.156,695.082 -12.77,681.531L-22.064,678.454L16.788,647.035C26.697,639.021 32.38,627.116 32.38,614.373L32.38,59.992C32.38,47.249 26.697,35.344 16.788,27.331L-22.064,-4.089L-12.77,-7.166C28.157,-20.718 70.767,-27.589 113.877,-27.589C156.987,-27.589 199.598,-20.718 240.523,-7.166L249.817,-4.089L210.966,27.331C201.058,35.343 195.374,47.248 195.374,59.992L195.373,614.373C195.373,627.117 201.057,639.021 210.966,647.035L249.817,678.454L240.523,681.531C199.598,695.082 156.987,701.953 113.877,701.953" style="fill:rgb(44,28,59);fill-rule:nonzero;"/>
        </g>
        <g transform="matrix(1,0,0,1,364.773,65.4754)">
            <path d="M0,598.593C-79.945,598.593 -155.104,567.46 -211.634,510.93C-268.164,454.401 -299.296,379.24 -299.296,299.296C-299.296,219.351 -268.164,144.191 -211.634,87.661C-155.104,31.132 -79.945,0 0,0C79.945,0 155.105,31.132 211.634,87.661C268.165,144.191 299.296,219.351 299.296,299.296C299.296,379.24 268.165,454.401 211.634,510.93C155.105,567.46 79.945,598.593 0,598.593" style="fill:rgb(137,65,204);fill-rule:nonzero;"/>
        </g>
        <g transform="matrix(1,0,0,1,364.774,673.871)">
            <path d="M0,-618.199C-40.132,-618.199 -79.26,-610.583 -116.299,-595.564C-154.662,-580.007 -189.07,-557.163 -218.566,-527.666C-248.063,-498.169 -270.907,-463.762 -286.464,-425.399C-301.484,-388.36 -309.1,-349.231 -309.1,-309.1C-309.1,-268.968 -301.484,-229.839 -286.464,-192.801C-270.907,-154.438 -248.063,-120.03 -218.566,-90.533C-189.069,-61.036 -154.662,-38.192 -116.299,-22.636C-79.26,-7.616 -40.132,0 0,0C40.132,0 79.26,-7.616 116.299,-22.636C154.662,-38.192 189.07,-61.036 218.566,-90.533C248.063,-120.03 270.907,-154.438 286.464,-192.801C301.484,-229.839 309.1,-268.968 309.1,-309.1C309.1,-349.231 301.484,-388.36 286.464,-425.399C270.907,-463.762 248.063,-498.169 218.566,-527.666C189.07,-557.163 154.662,-580.007 116.299,-595.564C79.26,-610.583 40.132,-618.199 0,-618.199M0,-587.899C71.351,-587.899 142.702,-560.68 197.141,-506.241C306.019,-397.363 306.019,-220.837 197.141,-111.959C142.702,-57.52 71.351,-30.3 0,-30.3C-71.351,-30.3 -142.702,-57.52 -197.141,-111.959C-306.019,-220.837 -306.019,-397.363 -197.141,-506.241C-142.702,-560.68 -71.351,-587.899 0,-587.899" style="fill:rgb(137,65,204);fill-rule:nonzero;"/>
        </g>
        <g transform="matrix(1,0,0,1,364.774,664.959)">
            <path d="M0,-600.375C-38.978,-600.375 -76.98,-592.979 -112.95,-578.393C-150.202,-563.287 -183.616,-541.101 -212.265,-512.452C-240.914,-483.803 -263.099,-450.389 -278.205,-413.137C-292.792,-377.167 -300.188,-339.166 -300.188,-300.187C-300.188,-261.209 -292.792,-223.207 -278.205,-187.237C-263.099,-149.986 -240.914,-116.571 -212.265,-87.922C-183.616,-59.273 -150.201,-37.088 -112.95,-21.982C-76.98,-7.395 -38.978,0 0,0C38.978,0 76.98,-7.395 112.95,-21.982C150.202,-37.088 183.616,-59.273 212.265,-87.922C240.914,-116.571 263.099,-149.986 278.205,-187.237C292.792,-223.207 300.188,-261.209 300.188,-300.187C300.188,-339.166 292.792,-377.167 278.205,-413.137C263.099,-450.389 240.914,-483.803 212.265,-512.452C183.616,-541.101 150.202,-563.287 112.95,-578.393C76.98,-592.979 38.978,-600.375 0,-600.375M0,-578.987C71.351,-578.987 142.702,-551.767 197.141,-497.328C306.019,-388.45 306.019,-211.924 197.141,-103.046C142.702,-48.607 71.351,-21.388 0,-21.388C-71.351,-21.388 -142.702,-48.607 -197.141,-103.046C-306.019,-211.924 -306.019,-388.45 -197.141,-497.328C-142.702,-551.767 -71.351,-578.987 0,-578.987" style="fill:rgb(44,28,59);fill-rule:nonzero;"/>
        </g>
        <g transform="matrix(-0.707107,-0.707107,-0.707107,0.707107,85.9744,364.771)">
            <path d="M-197.141,-475.94C-351.118,-475.94 -475.94,-351.118 -475.94,-197.141C-475.94,-43.164 -351.118,81.658 -197.141,81.658C-43.164,81.658 81.658,-43.164 81.658,-197.141C81.658,-351.118 -43.164,-475.94 -197.141,-475.94Z" style="fill:none;fill-rule:nonzero;stroke:rgb(137,65,204);stroke-width:16.44px;"/>
        </g>
        <g transform="matrix(1,0,0,1,364.774,654.265)">
            <path d="M0,-578.987C-37.594,-578.987 -74.244,-571.855 -108.931,-557.789C-144.849,-543.223 -177.072,-521.828 -204.703,-494.196C-232.334,-466.565 -253.73,-434.343 -268.295,-398.425C-282.362,-363.737 -289.494,-327.087 -289.494,-289.493C-289.494,-251.899 -282.362,-215.249 -268.295,-180.562C-253.73,-144.644 -232.334,-112.422 -204.703,-84.79C-177.072,-57.159 -144.849,-35.763 -108.931,-21.198C-74.244,-7.132 -37.594,0 0,0C37.594,0 74.244,-7.132 108.931,-21.198C144.849,-35.763 177.072,-57.159 204.703,-84.79C232.334,-112.422 253.73,-144.644 268.295,-180.562C282.362,-215.249 289.494,-251.899 289.494,-289.493C289.494,-327.087 282.362,-363.737 268.295,-398.425C253.73,-434.343 232.334,-466.565 204.703,-494.196C177.072,-521.828 144.849,-543.223 108.931,-557.789C74.244,-571.855 37.594,-578.987 0,-578.987M0,-568.293C71.351,-568.293 142.702,-541.073 197.141,-486.634C306.019,-377.756 306.019,-201.23 197.141,-92.352C142.702,-37.913 71.351,-10.694 0,-10.694C-71.351,-10.694 -142.702,-37.913 -197.141,-92.352C-306.019,-201.23 -306.019,-377.756 -197.141,-486.634C-142.702,-541.073 -71.351,-568.293 0,-568.293" style="fill:rgb(137,65,204);fill-rule:nonzero;"/>
        </g>
        <g transform="matrix(1,0,0,1,364.774,664.959)">
            <path d="M0,-600.375C-38.978,-600.375 -76.98,-592.979 -112.95,-578.393C-150.202,-563.287 -183.616,-541.101 -212.265,-512.452C-240.914,-483.803 -263.099,-450.389 -278.205,-413.137C-292.792,-377.167 -300.188,-339.166 -300.188,-300.187C-300.188,-261.209 -292.792,-223.207 -278.205,-187.237C-263.099,-149.986 -240.914,-116.571 -212.265,-87.922C-183.616,-59.273 -150.201,-37.088 -112.95,-21.982C-76.98,-7.395 -38.978,0 0,0C38.978,0 76.98,-7.395 112.95,-21.982C150.202,-37.088 183.616,-59.273 212.265,-87.922C240.914,-116.571 263.099,-149.986 278.205,-187.237C292.792,-223.207 300.188,-261.209 300.188,-300.187C300.188,-339.166 292.792,-377.167 278.205,-413.137C263.099,-450.389 240.914,-483.803 212.265,-512.452C183.616,-541.101 150.202,-563.287 112.95,-578.393C76.98,-592.979 38.978,-600.375 0,-600.375M0,-578.987C71.351,-578.987 142.702,-551.767 197.141,-497.328C306.019,-388.45 306.019,-211.924 197.141,-103.046C142.702,-48.607 71.351,-21.388 0,-21.388C-71.351,-21.388 -142.702,-48.607 -197.141,-103.046C-306.019,-211.924 -306.019,-388.45 -197.141,-497.328C-142.702,-551.767 -71.351,-578.987 0,-578.987" style="fill:rgb(44,28,59);fill-rule:nonzero;"/>
        </g>
        <g transform="matrix(-0.707107,-0.707107,-0.707107,0.707107,85.9744,364.771)">
            <path d="M-197.141,-475.94C-351.118,-475.94 -475.94,-351.118 -475.94,-197.141C-475.94,-43.164 -351.118,81.658 -197.141,81.658C-43.164,81.658 81.658,-43.164 81.658,-197.141C81.658,-351.118 -43.164,-475.94 -197.141,-475.94Z" style="fill:none;fill-rule:nonzero;stroke:rgb(137,65,204);stroke-width:16.44px;"/>
        </g>
        <g transform="matrix(1,0,0,1,364.774,654.265)">
            <path d="M0,-578.987C-37.594,-578.987 -74.244,-571.855 -108.931,-557.789C-144.849,-543.223 -177.072,-521.828 -204.703,-494.196C-232.334,-466.565 -253.73,-434.343 -268.295,-398.425C-282.362,-363.737 -289.494,-327.087 -289.494,-289.493C-289.494,-251.899 -282.362,-215.249 -268.295,-180.562C-253.73,-144.644 -232.334,-112.422 -204.703,-84.79C-177.072,-57.159 -144.849,-35.763 -108.931,-21.198C-74.244,-7.132 -37.594,0 0,0C37.594,0 74.244,-7.132 108.931,-21.198C144.849,-35.763 177.072,-57.159 204.703,-84.79C232.334,-112.422 253.73,-144.644 268.295,-180.562C282.362,-215.249 289.494,-251.899 289.494,-289.493C289.494,-327.087 282.362,-363.737 268.295,-398.425C253.73,-434.343 232.334,-466.565 204.703,-494.196C177.072,-521.828 144.849,-543.223 108.931,-557.789C74.244,-571.855 37.594,-578.987 0,-578.987M0,-568.293C71.351,-568.293 142.702,-541.073 197.141,-486.634C306.019,-377.756 306.019,-201.23 197.141,-92.352C142.702,-37.913 71.351,-10.694 0,-10.694C-71.351,-10.694 -142.702,-37.913 -197.141,-92.352C-306.019,-201.23 -306.019,-377.756 -197.141,-486.634C-142.702,-541.073 -71.351,-568.293 0,-568.293" style="fill:rgb(137,65,204);fill-rule:nonzero;"/>
        </g>
        <g transform="matrix(1,0,0,1,364.774,171.51)">
            <path d="M0,386.48C-51.616,386.48 -100.143,366.379 -136.641,329.881C-173.14,293.383 -193.24,244.857 -193.24,193.24C-193.24,141.624 -173.14,93.097 -136.641,56.599C-100.143,20.101 -51.616,0 0,0C51.616,0 100.144,20.101 136.642,56.599C211.986,131.943 211.986,254.538 136.642,329.881C100.144,366.379 51.616,386.48 0,386.48" style="fill:rgb(44,28,59);fill-rule:nonzero;"/>
        </g>
        <g transform="matrix(1,0,0,1,364.774,563.337)">
            <path d="M0,-397.174C-50.823,-397.174 -101.646,-377.786 -140.422,-339.009C-217.975,-261.456 -217.975,-135.718 -140.422,-58.164C-101.646,-19.388 -50.823,0 0,0C50.823,0 101.646,-19.388 140.422,-58.164C217.976,-135.718 217.976,-261.456 140.422,-339.009C101.646,-377.786 50.823,-397.174 0,-397.174M0,-386.48C24.408,-386.48 48.198,-381.851 70.71,-372.723C94.011,-363.274 114.921,-349.387 132.861,-331.447C150.8,-313.508 164.687,-292.597 174.136,-269.297C183.264,-246.785 187.893,-222.995 187.893,-198.587C187.893,-174.179 183.264,-150.388 174.136,-127.877C164.687,-104.576 150.8,-83.666 132.86,-65.726C114.921,-47.787 94.011,-33.9 70.71,-24.451C48.198,-15.322 24.408,-10.694 0,-10.694C-24.408,-10.694 -48.198,-15.322 -70.71,-24.451C-94.01,-33.9 -114.921,-47.787 -132.861,-65.726C-150.8,-83.666 -164.687,-104.576 -174.136,-127.877C-183.264,-150.388 -187.893,-174.179 -187.893,-198.587C-187.893,-222.995 -183.264,-246.785 -174.136,-269.297C-164.687,-292.597 -150.8,-313.508 -132.861,-331.447C-114.921,-349.387 -94.01,-363.274 -70.71,-372.723C-48.198,-381.851 -24.408,-386.48 0,-386.48" style="fill:rgb(137,65,204);fill-rule:nonzero;"/>
        </g>
        <g transform="matrix(1,0,0,1,364.773,55.6718)">
            <path d="M0,618.2C-82.563,618.2 -160.185,586.047 -218.566,527.665C-276.947,469.285 -309.099,391.663 -309.099,309.099C-309.099,226.536 -276.947,148.914 -218.566,90.533C-160.185,32.152 -82.563,0 0,0C82.563,0 160.185,32.152 218.566,90.533C276.948,148.914 309.1,226.536 309.1,309.099C309.1,391.663 276.948,469.285 218.566,527.665C160.185,586.047 82.563,618.2 0,618.2" style="fill:rgb(137,65,204);fill-rule:nonzero;"/>
        </g>
        <g transform="matrix(1,0,0,1,364.773,64.583)">
            <path d="M0,600.377C-80.183,600.377 -155.567,569.151 -212.265,512.453C-268.962,455.755 -300.188,380.371 -300.188,300.188C-300.188,220.005 -268.962,144.621 -212.265,87.923C-155.567,31.226 -80.183,0 0,0C80.183,0 155.567,31.226 212.265,87.923C268.963,144.621 300.188,220.005 300.188,300.188C300.188,380.371 268.963,455.755 212.265,512.453C155.567,569.151 80.183,600.377 0,600.377" style="fill:rgb(44,28,59);fill-rule:nonzero;"/>
        </g>
        <g transform="matrix(1,0,0,1,364.773,75.277)">
            <path d="M0,578.989C-77.327,578.989 -150.025,548.876 -204.703,494.197C-259.381,439.519 -289.494,366.821 -289.494,289.494C-289.494,212.168 -259.381,139.469 -204.703,84.791C-150.025,30.113 -77.327,0 0,0C77.327,0 150.025,30.113 204.703,84.791C259.382,139.469 289.494,212.168 289.494,289.494C289.494,366.821 259.382,439.519 204.703,494.197C150.025,548.876 77.327,578.989 0,578.989" style="fill:rgb(137,65,204);fill-rule:nonzero;"/>
        </g>
        <g transform="matrix(1,0,0,1,180.458,213.326)">
            <path d="M0,-27.184L21.665,-7.595C26.554,-3.174 32.252,0.26 38.445,2.517L21.803,20.922L21.718,20.75C18.865,14.971 14.945,9.783 10.165,5.461L-11.668,-14.28L-11.821,-14.111C-16.122,-9.354 -19.789,-4.059 -22.73,1.64L-32.197,-10.006L2.253,-48.106L14.791,-39.856L14.79,-39.855C9.415,-36.358 4.516,-32.178 0.215,-27.421L0,-27.184Z" style="fill:white;fill-rule:nonzero;"/>
        </g>
        <g transform="matrix(1,0,0,1,248.909,162.366)">
            <path d="M0,-9.899C5.615,-12.99 7.719,-16.762 5.069,-21.574C2.375,-26.467 -1.027,-27.521 -6.642,-24.429L-16.187,-19.174L-8.502,-5.217L0,-9.899ZM44.041,4.214L23.587,15.475C20.64,11.247 16.796,7.722 12.329,5.15L4.726,0.774L-2.573,4.792L-1.029,7.597C2.023,13.14 5.737,18.292 10.032,22.939L-9.219,33.538C-10.85,27.424 -13.217,21.53 -16.269,15.987L-27.483,-4.378C-30.535,-9.922 -34.249,-15.074 -38.544,-19.721L-9.668,-35.62C4.53,-43.437 13.769,-40.894 19.776,-29.986C23.529,-23.168 22.951,-16.055 16.728,-9.702L44.041,4.214Z" style="fill:white;fill-rule:nonzero;"/>
        </g>
        <g transform="matrix(1,0,0,1,354.343,118.476)">
            <path d="M0,22.242L0.233,36.783L-49.693,45.238C-49.28,38.936 -49.603,32.607 -50.658,26.38L-54.547,3.414C-55.601,-2.813 -57.379,-8.896 -59.845,-14.71L-10.912,-22.996L-6.435,-9.174C-12.762,-9.767 -19.139,-9.53 -25.404,-8.469L-38.627,-6.23L-36.563,5.958L-26.872,4.317C-22.752,3.62 -18.721,2.47 -14.854,0.889L-12.484,14.883C-16.657,14.664 -20.841,14.905 -24.961,15.603L-34.652,17.244L-32.45,30.245L-18.322,27.852C-11.998,26.781 -5.84,24.896 0,22.242" style="fill:white;fill-rule:nonzero;"/>
        </g>
        <g transform="matrix(1,0,0,1,403.193,134.347)">
            <path d="M0,-11.077C6.958,-9.935 10.476,-11.585 11.173,-15.832C11.885,-20.17 10.04,-23.071 3.625,-24.123L-5.411,-25.605L-7.59,-12.322L0,-11.077ZM-0.056,14.154C6.36,15.206 9.139,12.971 9.896,8.363C10.651,3.754 7.407,0.902 1.263,-0.106L-9.4,-1.855L-11.713,12.242L-0.056,14.154ZM-26.957,2.22L-23.194,-20.723C-22.169,-26.968 -21.907,-33.314 -22.413,-39.623L10.207,-34.271C24.666,-31.9 29.367,-24.354 27.737,-14.414C26.714,-8.179 23.035,-4.422 15.766,-3.666C24.823,-0.045 28.391,5.922 27.264,12.79C25.589,23.001 17.535,28.546 1.54,25.923L-32.256,20.379C-29.761,14.563 -27.982,8.465 -26.957,2.22" style="fill:white;fill-rule:nonzero;"/>
        </g>
        <g transform="matrix(1,0,0,1,494.128,150.695)">
            <path d="M0,13.117C7.119,0.628 5.489,-6.309 -1.75,-10.436C-8.829,-14.472 -15.949,-12.523 -23.068,-0.034C-30.188,12.454 -28.432,19.358 -21.352,23.394C-14.114,27.521 -7.12,25.605 0,13.117M-38.819,-9.013C-28.615,-26.911 -12.879,-31.219 4.462,-21.333C21.724,-11.493 25.953,4.198 15.75,22.096C5.547,39.994 -10.315,44.336 -27.417,34.587C-43.962,25.154 -49.022,8.885 -38.819,-9.013" style="fill:white;fill-rule:nonzero;"/>
        </g>
        <g transform="matrix(1,0,0,1,548.61,177.919)">
            <path d="M0,58.288L-12.638,66.384L-42.862,32.122C-37.289,29.153 -32.082,25.542 -27.346,21.364L-9.88,5.957C-5.144,1.779 -0.913,-2.937 2.729,-8.096L17.205,8.313C11.593,11.237 6.357,14.831 1.612,19.017L-20.631,38.639L-14.423,45.676C-10.181,50.485 -5.332,54.725 0,58.288" style="fill:white;fill-rule:nonzero;"/>
        </g>
        <g transform="matrix(1,0,0,1,185.118,496.312)">
            <path d="M0,23.09L0.001,23.091L-6.137,27.949C-7.158,25.906 -8.387,23.974 -9.805,22.184L-13.871,17.048L-14.697,17.701C-17.529,19.943 -19.901,22.712 -21.682,25.855L-29.625,15.822C-26.488,14.359 -23.532,12.535 -20.818,10.387L-10.81,2.465C-8.096,0.317 -5.643,-2.141 -3.499,-4.859L13.039,16.034L7.609,21.868C6.227,18.672 4.432,15.671 2.27,12.94L-1.949,7.61L-8.834,13.061L-4.768,18.198C-3.351,19.988 -1.753,21.627 0,23.09" style="fill:white;fill-rule:nonzero;"/>
        </g>
        <g transform="matrix(1,0,0,1,208.183,535.328)">
            <path d="M0,9.849C5.333,4.052 5.312,0.146 1.952,-2.945C-1.334,-5.968 -5.375,-5.799 -10.708,-0.002C-16.041,5.795 -15.949,9.697 -12.663,12.72C-9.303,15.812 -5.333,15.646 0,9.849M-18.019,-6.727C-10.376,-15.035 -1.444,-15.409 6.606,-8.003C14.618,-0.632 14.954,8.266 7.311,16.575C-0.331,24.883 -9.335,25.258 -17.274,17.955C-24.954,10.889 -25.662,1.58 -18.019,-6.727" style="fill:white;fill-rule:nonzero;"/>
        </g>
        <g transform="matrix(1,0,0,1,242.841,562.373)">
            <path d="M0,7.78C4.22,1.128 3.506,-2.712 -0.349,-5.158C-4.12,-7.55 -8.067,-6.667 -12.287,-0.015C-16.507,6.637 -15.724,10.462 -11.953,12.853C-8.098,15.299 -4.22,14.432 0,7.78M-20.676,-5.336C-14.629,-14.87 -5.904,-16.822 3.333,-10.963C12.527,-5.13 14.437,3.568 8.389,13.101C2.342,22.635 -6.452,24.602 -15.562,18.824C-24.375,13.233 -26.724,4.197 -20.676,-5.336" style="fill:white;fill-rule:nonzero;"/>
        </g>
        <g transform="matrix(1,0,0,1,279.025,588.566)">
            <path d="M0,-11.612L-6.277,3.111C-7.694,6.434 -8.455,10 -8.518,13.611L-21.026,8.278L-20.953,8.204C-18.468,5.693 -16.481,2.735 -15.096,-0.514L-8.769,-15.351L-8.888,-15.402C-12.118,-16.779 -15.514,-17.732 -18.99,-18.237L-18.994,-18.237L-14.652,-25.223L11.242,-14.182L9.207,-6.214C6.435,-8.374 3.394,-10.165 0.161,-11.543L0,-11.612Z" style="fill:white;fill-rule:nonzero;"/>
        </g>
        <g transform="matrix(1,0,0,1,307.114,598.858)">
            <path d="M0,-5.838C3.751,-4.91 5.745,-5.656 6.312,-7.946C6.89,-10.284 6.01,-11.95 2.552,-12.805L-2.32,-14.011L-4.091,-6.85L0,-5.838ZM-1.135,7.942C2.323,8.797 3.939,7.699 4.554,5.214C5.169,2.73 3.522,1.03 0.209,0.21L-5.538,-1.212L-7.419,6.387L-1.135,7.942ZM-15.307,0.245L-12.247,-12.123C-11.414,-15.489 -10.993,-18.944 -10.993,-22.411L-10.993,-22.412L6.592,-18.061C14.385,-16.132 16.623,-11.805 15.297,-6.447C14.465,-3.085 12.292,-1.194 8.287,-1.099C13.076,1.275 14.764,4.691 13.848,8.393C12.486,13.897 7.843,16.574 -0.779,14.44L-18.997,9.932C-17.379,6.864 -16.14,3.612 -15.307,0.245" style="fill:white;fill-rule:nonzero;"/>
        </g>
        <g transform="matrix(1,0,0,1,349.026,598.243)">
            <path d="M0,9.592L-3.518,-1.96L-8.804,8.898L0,9.592ZM13.787,22.408L2.232,21.496L2.262,18.47C2.27,17.576 2.139,16.685 1.873,15.83L-11.683,14.761C-12.08,15.563 -12.349,16.422 -12.48,17.308L-12.925,20.3L-22.779,19.522L-9.63,-5.826C-8.51,-7.985 -8.302,-10.503 -9.054,-12.816L2.651,-11.892L13.787,22.408Z" style="fill:white;fill-rule:nonzero;"/>
        </g>
        <g transform="matrix(1,0,0,1,397.399,596.163)">
            <path d="M0,13.959L-0.64,22.159L-25.607,24.042C-25.062,20.624 -24.918,17.154 -25.178,13.703L-26.138,0.975C-26.399,-2.475 -27.061,-5.884 -28.112,-9.181L-16.153,-10.083C-16.731,-6.664 -16.892,-3.187 -16.631,0.271L-15.409,16.48L-10.28,16.093C-6.776,15.829 -3.32,15.112 0,13.959" style="fill:white;fill-rule:nonzero;"/>
        </g>
        <g transform="matrix(1,0,0,1,431.599,595.161)">
            <path d="M0,7.986L0.513,16.195L-23.948,21.549C-23.886,18.089 -24.229,14.633 -24.969,11.252L-27.739,-1.404C-28.452,-4.66 -29.542,-7.822 -30.989,-10.825L-31.072,-10.999L-19.357,-13.563C-19.451,-10.097 -19.124,-6.631 -18.382,-3.243L-14.906,12.636L-9.882,11.536C-6.449,10.785 -3.127,9.591 0,7.986Z" style="fill:white;fill-rule:nonzero;"/>
        </g>
        <g transform="matrix(1,0,0,1,450.3,575.196)">
            <path d="M0,12.715C-4.671,2.38 -0.953,-5.963 8.192,-10.097C12.033,-11.834 15.462,-12.777 18.22,-13.253L23.366,-5.281L19.741,-5.513C17.011,-5.687 14.265,-5.238 11.771,-4.115C11.758,-4.109 11.744,-4.103 11.731,-4.097C7.661,-2.257 5.775,1.734 8.835,8.502C11.955,15.407 16.541,17.024 21.251,14.894C21.263,14.889 21.275,14.883 21.287,14.878C23.447,13.898 25.287,12.329 26.695,10.421L29.1,7.162L31.706,16.337C29.542,18.251 27.163,19.932 23.459,21.606C13.811,25.968 4.672,23.05 0,12.715" style="fill:white;fill-rule:nonzero;"/>
        </g>
        <g transform="matrix(1,0,0,1,510.779,572.54)">
            <path d="M0,-7.682L3.355,-0.172L-17.681,13.407C-18.835,10.144 -20.366,7.027 -22.243,4.119L-29.268,-6.764C-31.076,-9.565 -33.205,-12.146 -35.612,-14.453L-35.75,-14.585L-25.675,-21.089C-24.549,-17.809 -23.03,-14.678 -21.149,-11.765L-12.333,1.892L-8.012,-0.897C-5.059,-2.803 -2.366,-5.084 0,-7.682" style="fill:white;fill-rule:nonzero;"/>
        </g>
        <g transform="matrix(1,0,0,1,515.149,526.047)">
            <path d="M0,31.106L-7.621,22.511C-9.833,20.016 -12.33,17.787 -15.059,15.871L-15.213,15.762L-6.242,7.807C-4.632,10.878 -2.655,13.743 -0.355,16.337L7.532,25.232C9.962,27.972 12.733,27.997 16.036,25.068C19.302,22.172 19.722,19.318 17.292,16.578L9.274,7.534C7.06,5.037 4.563,2.808 1.832,0.891L1.679,0.784L9.713,-6.339L9.802,-6.173C11.378,-3.234 13.292,-0.488 15.504,2.007L23.125,10.602C28.683,16.871 27.975,23.332 20.017,30.389C12.058,37.445 5.559,37.375 0,31.106" style="fill:white;fill-rule:nonzero;"/>
        </g>
        <g transform="matrix(1,0,0,1,560.576,511.78)">
            <path d="M0,7.388C2.233,4.612 1.917,2.684 -0.076,1.079C-2.07,-0.524 -4.305,0.253 -6.444,2.912L-10.156,7.524L-4.058,12.431L0,7.388ZM-12.017,0.553C-9.595,-2.458 -9.432,-4.58 -11.27,-6.059C-13.146,-7.568 -15.027,-7.472 -17.261,-4.696L-20.405,-0.787L-14.659,3.836L-12.017,0.553ZM-12.949,16.997L-22.875,9.011C-25.577,6.837 -28.533,4.999 -31.678,3.538L-20.323,-10.574C-15.29,-16.829 -10.424,-17.035 -6.124,-13.575C-3.427,-11.404 -2.628,-8.636 -4.228,-4.966C-0.058,-8.307 3.75,-8.399 6.721,-6.008C11.139,-2.454 11.61,2.883 6.042,9.803L-5.72,24.423L-5.721,24.422C-7.821,21.664 -10.248,19.17 -12.949,16.997" style="fill:white;fill-rule:nonzero;"/>
        </g>
        <g transform="matrix(1,0,0,1,98.5254,352.773)">
            <path d="M0,23.36C12.827,12.53 15.503,10.279 15.545,6.371C15.545,3.525 13.379,1.996 10.151,1.996L10.095,1.996C7.761,2.004 5.479,2.681 3.451,3.836L0.637,5.437L1.699,-1.402C4.417,-2.039 7.518,-2.761 11.68,-2.761C19.41,-2.761 22.893,1.062 22.893,5.734C22.893,10.406 20.642,14.059 9.216,21.193L14.872,21.101C17.974,21.05 21.061,20.668 24.082,19.962L23.106,26.121L0,26.121L0,23.36Z" style="fill:rgb(44,28,59);fill-rule:nonzero;"/>
        </g>
        <g transform="matrix(1,0,0,1,146.817,364.75)">
            <path d="M0,0.043C0,-7.517 -2.336,-9.811 -5.649,-9.811C-8.92,-9.811 -11.383,-7.517 -11.383,0.043C-11.383,7.518 -9.004,9.854 -5.734,9.854C-2.464,9.854 0,7.518 0,0.043M-18.391,0.043C-18.391,-9.853 -13.337,-14.823 -5.649,-14.823C1.996,-14.823 7.008,-9.853 7.008,0.043C7.008,9.854 1.954,14.866 -5.649,14.866C-12.997,14.866 -18.391,9.854 -18.391,0.043" style="fill:rgb(44,28,59);fill-rule:nonzero;"/>
        </g>
        <g transform="matrix(1,0,0,1,575.434,353.091)">
            <path d="M0,23.36C12.827,12.53 15.503,10.279 15.545,6.371C15.545,3.525 13.38,1.996 10.151,1.996L10.095,1.996C7.761,2.004 5.479,2.681 3.45,3.836L0.637,5.437L1.699,-1.402C4.417,-2.039 7.518,-2.761 11.68,-2.761C19.411,-2.761 22.894,1.062 22.894,5.734C22.894,10.406 20.642,14.059 9.217,21.194L14.871,21.101C17.973,21.05 21.061,20.668 24.083,19.962L23.106,26.121L0,26.121L0,23.36Z" style="fill:rgb(44,28,59);fill-rule:nonzero;"/>
        </g>
        <g transform="matrix(1,0,0,1,629.947,359.407)">
            <path d="M0,11.154C0,17.028 -4.944,20.577 -12.634,20.577C-17.24,20.577 -20.028,19.732 -23.535,18.549L-24.676,11.028L-20.671,13.24C-18.562,14.405 -16.196,15.037 -13.787,15.042L-13.733,15.042C-10.521,15.042 -8.366,13.816 -8.366,11.366C-8.366,8.957 -10.479,7.689 -13.69,7.689C-15.676,7.689 -17.282,7.943 -19.183,8.492L-23.578,5.873L-23.578,-8.325L-9.389,-8.325C-6.38,-8.325 -3.383,-8.694 -0.465,-9.423L-1.521,-2.452L-17.451,-2.452L-17.493,3.211C-15.296,2.577 -12.972,2.239 -10.733,2.239C-4.394,2.239 0,5.45 0,11.154" style="fill:rgb(44,28,59);fill-rule:nonzero;"/>
        </g>
        <g transform="matrix(1,0,0,1,552.671,364.751)">
            <path d="M0,0C0,24.41 -4.63,48.2 -13.76,70.71C-23.21,94.01 -37.1,114.92 -55.04,132.86C-72.98,150.8 -93.89,164.69 -117.19,174.13C-139.7,183.26 -163.49,187.89 -187.9,187.89C-212.31,187.89 -236.1,183.26 -258.61,174.13C-281.91,164.69 -302.82,150.8 -320.76,132.86C-338.7,114.92 -352.58,94.01 -362.03,70.71C-371.16,48.2 -375.79,24.41 -375.79,0C-375.79,-24.41 -371.16,-48.2 -362.03,-70.71C-352.58,-94.01 -338.7,-114.92 -320.76,-132.86C-302.82,-150.8 -281.91,-164.69 -258.61,-174.14C-236.1,-183.27 -212.31,-187.89 -187.9,-187.89C-163.49,-187.89 -139.7,-183.27 -117.19,-174.14C-93.89,-164.69 -72.98,-150.8 -55.04,-132.86C-37.1,-114.92 -23.21,-94.01 -13.76,-70.71C-4.63,-48.2 0,-24.41 0,0" style="fill:rgb(44,28,59);fill-rule:nonzero;"/>
        </g>
        <g transform="matrix(1,0,0,1,473.901,300.551)">
            <path d="M0,149.52L-3.24,149.79C-6.31,150.06 -9.08,151.52 -11.04,153.92C-12.99,156.31 -13.87,159.32 -13.52,162.39L-13.2,165.21C-12.15,177.19 -16.32,189.07 -24.65,197.79C-33.07,206.62 -44.47,211.22 -56.77,210.71C-60.96,210.54 -69.22,209.46 -77.52,204.12C-81.06,201.83 -87.66,196.72 -92.11,188.13C-95.69,181.2 -96.34,175 -96.58,172.66L-96.6,172.51C-97.13,167.44 -98.32,159.37 -100.33,147.11C-100.62,145.34 -102.15,144.54 -103.5,144.66C-105.07,144.81 -106.17,146.06 -106.14,147.63C-105.55,172.28 -104.57,207.09 -103.16,233.88C-107.05,234.03 -111.21,234.03 -115.1,233.88C-113.69,207.07 -112.7,172.27 -112.12,147.63C-112.08,146.06 -113.19,144.81 -114.75,144.66C-116.11,144.54 -117.63,145.34 -117.93,147.11C-119.94,159.39 -121.13,167.46 -121.66,172.51L-121.68,172.67C-121.92,175 -122.57,181.2 -126.15,188.13C-130.6,196.72 -137.2,201.83 -140.73,204.11C-149.04,209.46 -157.3,210.54 -161.49,210.71C-173.78,211.21 -185.19,206.62 -193.61,197.79C-201.93,189.07 -206.11,177.19 -205.06,165.23L-204.74,162.39C-204.39,159.32 -205.27,156.31 -207.22,153.92C-209.18,151.52 -211.95,150.06 -215.03,149.79L-218.25,149.52C-241.26,147.49 -258.33,127.14 -256.31,104.14C-255.82,98.56 -254.27,93.23 -251.69,88.33C-249.12,83.48 -245.69,79.25 -241.51,75.74C-237.25,72.17 -232.45,69.52 -227.25,67.88C-221.18,65.94 -215.07,66.02 -208.61,66.11C-207.62,66.12 -206.63,66.13 -205.64,66.14L-195.15,66.2C-186.78,66.24 -178.4,66.28 -170.03,66.33L-170.01,66.33C-168.18,66.33 -167.14,64.93 -167.06,63.54C-166.98,62.15 -167.86,60.64 -169.69,60.44C-177.32,59.58 -184.95,58.72 -192.57,57.87L-209.88,55.93C-211.01,55.8 -212.12,55.69 -213.24,55.57C-219.75,54.9 -225.9,54.27 -231.82,51.6C-236.79,49.36 -241.24,46.17 -245.06,42.12C-249.82,37.08 -252.39,31.89 -253.71,28.43C-255.7,23.24 -256.62,17.77 -256.44,12.18C-256.11,1.02 -251.45,-9.36 -243.3,-17.04C-235.15,-24.72 -224.52,-28.76 -213.37,-28.43L-210.12,-28.33C-207.06,-28.26 -204.11,-29.38 -201.89,-31.53C-199.68,-33.67 -198.45,-36.55 -198.43,-39.64L-198.43,-42.48C-198.07,-54.51 -192.53,-65.81 -183.24,-73.51C-173.84,-81.29 -161.98,-84.51 -149.84,-82.58C-145.71,-81.92 -137.63,-79.89 -129.99,-73.61C-122.99,-67.84 -118.01,-59.78 -115.96,-50.9C-114.9,-46.35 -114.81,-41.9 -114.71,-37.18C-114.7,-36.34 -114.68,-35.5 -114.66,-34.65C-114.48,-27.99 -114.28,-21.91 -114.04,-16.07C-113.54,-4.41 -112.85,7.44 -112.19,18.89L-112.08,20.69C-111.97,22.52 -110.51,23.48 -109.13,23.48C-107.75,23.48 -106.29,22.52 -106.17,20.68L-106.07,18.96C-105.41,7.49 -104.72,-4.38 -104.22,-16.07C-103.98,-21.9 -103.77,-27.98 -103.6,-34.65C-103.58,-35.49 -103.56,-36.34 -103.55,-37.18C-103.45,-41.89 -103.36,-46.35 -102.3,-50.9C-100.25,-59.78 -95.27,-67.84 -88.27,-73.61C-80.63,-79.88 -72.55,-81.92 -68.42,-82.58C-56.28,-84.51 -44.42,-81.29 -35.02,-73.51C-25.72,-65.81 -20.19,-54.51 -19.83,-42.52L-19.83,-39.63C-19.81,-36.55 -18.58,-33.67 -16.36,-31.53C-14.14,-29.38 -11.21,-28.25 -8.13,-28.33L-4.89,-28.43C6.25,-28.76 16.9,-24.72 25.04,-17.04C33.19,-9.36 37.85,1.02 38.18,12.18C38.36,17.77 37.44,23.24 35.45,28.43C34.13,31.89 31.56,37.08 26.8,42.12C22.99,46.17 18.53,49.36 13.56,51.6C7.65,54.27 1.49,54.9 -5.02,55.57C-6.14,55.69 -7.25,55.8 -8.38,55.93L-25.48,57.84C-33.17,58.71 -40.87,59.57 -48.56,60.44C-50.4,60.64 -51.28,62.15 -51.2,63.54C-51.12,64.93 -50.08,66.33 -48.25,66.33L-48.23,66.33C-39.86,66.28 -31.48,66.24 -23.11,66.2L-12.62,66.14C-11.63,66.13 -10.64,66.12 -9.65,66.11C-3.19,66.02 2.92,65.95 9,67.88C14.19,69.52 18.99,72.16 23.25,75.73C27.43,79.25 30.86,83.48 33.43,88.32C36.01,93.23 37.56,98.56 38.05,104.14L38.05,104.15C40.07,127.14 23,147.49 0,149.52" style="fill:white;fill-rule:nonzero;"/>
        </g>
        <g transform="matrix(1,0,0,1,336.659,282.173)">
            <path d="M0,60.249C-7.827,49.404 -15.7,38.986 -24.855,29.368C-33.941,19.679 -43.866,11.218 -54.207,2.725C-55.071,2.016 -55.192,0.736 -54.476,-0.122C-53.919,-0.79 -53.018,-1.004 -52.245,-0.727C-45.671,1.644 -39.496,5.029 -33.732,9.008C-22.217,16.995 -12.383,27.499 -5.08,39.453C-1.455,45.444 1.561,51.804 3.562,58.495C3.881,59.56 3.275,60.682 2.21,61.001C1.367,61.253 0.486,60.926 0,60.249" style="fill:rgb(44,28,59);fill-rule:nonzero;"/>
        </g>
        <g transform="matrix(1,0,0,1,387.783,284.258)">
            <path d="M0,56.41C8.315,30.151 30.023,6.962 55.807,-2.812C57.904,-3.568 59.502,-0.769 57.769,0.64C52.556,4.988 47.426,9.17 42.525,13.58C32.698,22.357 23.732,31.832 15.555,42.164C11.436,47.315 7.571,52.691 3.562,58.164C2.264,59.978 -0.654,58.554 0,56.41" style="fill:rgb(44,28,59);fill-rule:nonzero;"/>
        </g>
        <g transform="matrix(1,0,0,1,388.561,443.112)">
            <path d="M0,-53.806C9.04,-43.949 18.075,-34.521 28.291,-26.038C38.446,-17.476 49.291,-10.232 60.553,-3.005C61.494,-2.401 61.763,-1.144 61.152,-0.208C60.677,0.52 59.808,0.838 59.007,0.653C52.202,-0.935 45.673,-3.575 39.485,-6.854C27.116,-13.442 16.122,-22.726 7.473,-33.745C3.174,-39.272 -0.564,-45.237 -3.333,-51.648C-3.774,-52.669 -3.304,-53.854 -2.283,-54.295C-1.475,-54.644 -0.562,-54.422 0,-53.806" style="fill:rgb(44,28,59);fill-rule:nonzero;"/>
        </g>
        <g transform="matrix(1,0,0,1,344.308,440.463)">
            <path d="M0,-48.999C-11.324,-23.89 -35.591,-3.395 -62.34,3.302C-64.511,3.808 -65.772,0.842 -63.886,-0.355C-58.201,-4.065 -52.617,-7.619 -47.234,-11.427C-36.451,-18.997 -26.439,-27.36 -17.111,-36.666C-12.42,-41.301 -7.954,-46.19 -3.333,-51.157C-1.832,-52.807 0.9,-51.052 0,-48.999" style="fill:rgb(44,28,59);fill-rule:nonzero;"/>
        </g>
    </g>
</svg>
